# Blender 3.4.1
# www.blender.org
mtllib barikat.mtl
o Concrete_Barrier_2_Mesh.002
v -0.382776 0.002825 1.103864
v -0.382776 0.002827 -1.174507
v 0.382311 0.002827 -1.174507
v 0.382311 0.002825 1.103864
v -0.103157 1.452880 1.086735
v 0.102693 1.452880 1.086735
v 0.102693 1.452881 -1.157377
v -0.103157 1.452881 -1.157377
v 0.382311 0.162449 1.103864
v -0.382776 0.162449 1.103864
v 0.397692 0.017414 1.086735
v 0.397692 0.017416 -1.157378
v 0.397692 0.147861 -1.157378
v 0.397692 0.147860 1.086735
v -0.382776 0.162450 -1.174507
v 0.382311 0.162450 -1.174507
v -0.398156 0.017416 -1.157378
v -0.398156 0.017414 1.086735
v -0.398156 0.147860 1.086735
v -0.398156 0.147861 -1.157378
v 0.188012 0.408599 1.103864
v -0.188476 0.408599 1.103864
v 0.388624 0.174233 1.086735
v 0.388624 0.174234 -1.157378
v 0.212460 0.396817 -1.157378
v 0.212460 0.396815 1.086735
v -0.188476 0.408600 -1.174507
v 0.188012 0.408600 -1.174507
v -0.389089 0.174234 -1.157378
v -0.389089 0.174233 1.086735
v -0.212924 0.396815 1.086735
v -0.212924 0.396817 -1.157378
v 0.106708 1.438291 1.103863
v -0.107173 1.438291 1.103863
v 0.122589 1.438935 -1.157377
v 0.122589 1.438935 1.086735
v 0.198875 0.422546 1.086735
v 0.198875 0.422546 -1.157378
v -0.107173 1.438292 -1.174506
v 0.106708 1.438292 -1.174506
v -0.123054 1.438935 1.086735
v -0.123054 1.438935 -1.157377
v -0.199341 0.422546 -1.157378
v -0.199341 0.422546 1.086735
vn -0.0000 -1.0000 -0.0000
vn -0.0000 1.0000 -0.0000
vn -0.0000 -0.0000 1.0000
vn 1.0000 -0.0000 -0.0000
vn 0.9860 0.1669 -0.0000
vn -0.0000 -0.0000 -1.0000
vn -1.0000 -0.0000 -0.0000
vn -0.9860 0.1670 -0.0000
vn 0.8743 0.4854 -0.0000
vn 0.8366 0.5478 -0.0000
vn 0.8366 0.5479 -0.0000
vn -0.8743 0.4854 -0.0000
vn -0.8366 0.5478 -0.0000
vn 0.9972 0.0748 -0.0000
vn 0.9594 0.2821 -0.0000
vn -0.9972 0.0748 -0.0000
vn -0.9594 0.2820 -0.0000
vn -0.7569 0.2947 0.5833
vn -0.7058 0.4391 0.5559
vn -0.7720 0.0723 0.6315
vn 0.7720 0.0723 0.6315
vn 0.7058 0.4391 0.5559
vn 0.7569 0.2947 0.5833
vn -0.7720 0.0723 -0.6315
vn -0.7058 0.4391 -0.5559
vn -0.7569 0.2947 -0.5833
vn 0.7569 0.2947 -0.5833
vn 0.7058 0.4391 -0.5559
vn 0.7720 0.0723 -0.6315
vn -0.6951 0.3050 0.6510
vn -0.7390 0.1551 0.6557
vn -0.6445 0.4665 0.6058
vn 0.6445 0.4665 0.6058
vn 0.7389 0.1551 0.6557
vn 0.6951 0.3050 0.6510
vn 0.6951 0.3050 -0.6510
vn 0.7390 0.1551 -0.6556
vn 0.6445 0.4660 -0.6061
vn -0.6445 0.4665 -0.6058
vn -0.7390 0.1551 -0.6557
vn -0.6951 0.3050 -0.6510
vn -0.5001 0.7136 0.4905
vn 0.5002 0.7136 0.4905
vn 0.5002 0.7136 -0.4905
vn -0.5002 0.7136 -0.4905
vn -0.6882 -0.7255 -0.0000
vn 0.6882 -0.7255 -0.0000
vn 0.7441 -0.0000 0.6681
vn -0.7441 -0.0000 0.6681
vn 0.7441 -0.0000 -0.6681
vn -0.7441 -0.0000 -0.6681
vn -0.0000 0.7613 0.6484
vn 0.5740 0.8189 -0.0000
vn -0.0000 0.7613 -0.6484
vn -0.5739 0.8189 -0.0000
vn -0.7743 0.0596 0.6299
vn 0.7744 0.0596 0.6299
vn 0.7744 0.0596 -0.6299
vn -0.7743 0.0596 -0.6299
vt 0.335365 0.365642
vt 0.102983 0.982908
vt 0.086237 0.378483
vt 0.335365 0.038327
vt 0.165266 0.718639
vt 0.086237 0.708827
vt 0.428569 0.038327
vt 0.071864 0.718639
vt 0.330715 0.368672
vt 0.428569 0.365642
vt 0.009582 0.982908
vt 0.330715 0.038327
vt 0.506330 0.344843
vt 0.068848 0.737802
vt 0.984157 0.946241
vt 0.509844 0.370062
vt 0.043718 0.737802
vt 0.984157 0.971366
vt 0.076835 0.709124
vt 0.661148 0.971366
vt 0.106000 0.963744
vt 0.160179 0.772653
vt 0.131130 0.963744
vt 0.661148 0.946241
vt 0.009582 0.955926
vt 0.303541 0.038327
vt 0.102983 0.955926
vt 0.113410 0.378483
vt 0.328231 0.040811
vt 0.328231 0.366188
vt 0.306025 0.366188
vt 0.306025 0.040811
vt 0.165266 0.745620
vt 0.113410 0.708827
vt 0.071864 0.745620
vt 0.303541 0.368672
vt 0.088720 0.706344
vt 0.088720 0.380967
vt 0.110927 0.380967
vt 0.110927 0.706344
vt 0.033302 0.914319
vt 0.261637 0.038327
vt 0.079263 0.914319
vt 0.155314 0.378483
vt 0.301535 0.040811
vt 0.301535 0.366188
vt 0.263643 0.366188
vt 0.263643 0.040811
vt 0.141546 0.787227
vt 0.155314 0.708827
vt 0.095584 0.787227
vt 0.261637 0.368672
vt 0.115416 0.706344
vt 0.115416 0.380967
vt 0.153308 0.380967
vt 0.153308 0.706344
vt 0.506330 0.370105
vt 0.043227 0.740268
vt 0.086346 0.038327
vt 0.509413 0.346531
vt 0.069338 0.740268
vt 0.330605 0.378483
vt 0.078279 0.712177
vt 0.661148 0.973794
vt 0.086237 0.366188
vt 0.507826 0.367354
vt 0.984157 0.973794
vt 0.086237 0.040811
vt 0.259263 0.040811
vt 0.259263 0.366188
vt 0.156665 0.772696
vt 0.131620 0.961278
vt 0.330605 0.708827
vt 0.075147 0.712206
vt 0.105509 0.961278
vt 0.086346 0.368672
vt 0.509384 0.343399
vt 0.984157 0.943812
vt 0.330715 0.380967
vt 0.158161 0.769944
vt 0.661148 0.943812
vt 0.330715 0.706344
vt 0.157688 0.706344
vt 0.157688 0.380967
s 1
usemtl Barier.002
f 1/1/1 2/4/1 3/7/1 4/10/1
f 5/15/2 6/18/2 7/20/2 8/24/2
f 1/2/3 4/11/3 9/25/3 10/27/3
f 11/29/4 12/30/4 13/31/5 14/32/5
f 3/8/6 2/5/6 15/33/6 16/35/6
f 17/37/7 18/38/7 19/39/8 20/40/8
f 10/27/3 9/25/3 21/41/3 22/43/3
f 23/45/9 24/46/9 25/47/10 26/48/11
f 16/35/6 15/33/6 27/49/6 28/51/6
f 29/53/12 30/54/12 31/55/13 32/56/13
f 33/58/3 34/61/3 22/43/3 21/41/3
f 35/65/14 36/68/14 37/69/15 38/70/15
f 39/72/6 40/75/6 28/51/6 27/49/6
f 41/79/16 42/82/16 43/83/17 44/84/17
f 10/28/18 30/54/19 19/39/20
f 14/32/21 23/45/22 9/26/23
f 20/40/24 29/53/25 15/34/26
f 16/36/27 24/46/28 13/31/29
f 22/44/30 44/84/31 31/55/32
f 26/48/33 37/69/34 21/42/35
f 28/52/36 38/70/37 25/47/38
f 32/56/39 43/83/40 27/50/41
f 34/60/42 5/13/42 41/77/42
f 36/66/43 6/16/43 33/57/43
f 40/74/44 7/19/44 35/63/44
f 42/80/45 8/22/45 39/71/45
f 1/3/46 18/38/46 17/37/46 2/6/46
f 3/9/47 12/30/47 11/29/47 4/12/47
f 23/45/9 14/32/5 13/31/5 24/46/9
f 29/53/12 20/40/8 19/39/8 30/54/12
f 4/12/48 11/29/48 14/32/21 9/26/23
f 10/28/18 19/39/20 18/38/49 1/3/49
f 12/30/50 3/9/50 16/36/27 13/31/29
f 2/6/51 17/37/51 20/40/24 15/34/26
f 37/69/15 26/48/11 25/47/10 38/70/15
f 43/83/17 32/56/13 31/55/13 44/84/17
f 30/54/19 10/28/18 22/44/30 31/55/32
f 9/26/23 23/45/22 26/48/33 21/42/35
f 24/46/28 16/36/27 28/52/36 25/47/38
f 15/34/26 29/53/25 32/56/39 27/50/41
f 5/14/52 34/61/52 33/58/52 6/17/52
f 6/18/53 36/67/53 35/64/53 7/20/53
f 7/21/54 40/75/54 39/72/54 8/23/54
f 8/24/55 42/81/55 41/78/55 5/15/55
f 34/62/56 41/79/56 44/84/31 22/44/30
f 33/59/57 21/42/35 37/69/34 36/68/57
f 40/76/58 35/65/58 38/70/37 28/52/36
f 39/73/59 27/50/41 43/83/40 42/82/59
