# Blender v2.92.0 OBJ File: 'start.blend'
# www.blender.org
mtllib start.mtl
o Cylinder
v 0.000000 -39.933464 28.990009
v 0.000000 7.011357 28.990009
v 0.536359 -39.933464 29.212177
v 0.536359 7.011357 29.212177
v 0.758526 -39.933464 29.748535
v 0.758526 7.011357 29.748535
v 0.536359 -39.933464 30.284895
v 0.536359 7.011357 30.284895
v -0.000000 -39.933464 30.507061
v -0.000000 7.011357 30.507061
v -0.536359 -39.933464 30.284895
v -0.536359 7.011357 30.284895
v -0.758526 -39.933464 29.748535
v -0.758526 7.011357 29.748535
v -0.536359 -39.933464 29.212177
v -0.536359 7.011357 29.212177
vt 1.000000 0.500000
vt 1.000000 1.000000
vt 0.875000 1.000000
vt 0.875000 0.500000
vt 0.750000 1.000000
vt 0.750000 0.500000
vt 0.625000 1.000000
vt 0.625000 0.500000
vt 0.500000 1.000000
vt 0.500000 0.500000
vt 0.375000 1.000000
vt 0.375000 0.500000
vt 0.250000 1.000000
vt 0.250000 0.500000
vt 0.419706 0.419706
vt 0.250000 0.490000
vt 0.080294 0.419706
vt 0.010000 0.250000
vt 0.080294 0.080294
vt 0.250000 0.010000
vt 0.419706 0.080294
vt 0.490000 0.250000
vt 0.125000 1.000000
vt 0.125000 0.500000
vt 0.000000 1.000000
vt 0.000000 0.500000
vt 0.750000 0.490000
vt 0.919706 0.419706
vt 0.990000 0.250000
vt 0.919706 0.080294
vt 0.750000 0.010000
vt 0.580294 0.080294
vt 0.510000 0.250000
vt 0.580294 0.419706
vn 0.3827 0.0000 -0.9239
vn 0.9239 0.0000 -0.3827
vn 0.9239 0.0000 0.3827
vn 0.3827 0.0000 0.9239
vn -0.3827 0.0000 0.9239
vn -0.9239 0.0000 0.3827
vn 0.0000 1.0000 -0.0000
vn -0.9239 0.0000 -0.3827
vn -0.3827 0.0000 -0.9239
vn 0.0000 -1.0000 0.0000
usemtl grey
s off
f 1/1/1 2/2/1 4/3/1 3/4/1
f 3/4/2 4/3/2 6/5/2 5/6/2
f 5/6/3 6/5/3 8/7/3 7/8/3
f 7/8/4 8/7/4 10/9/4 9/10/4
f 9/10/5 10/9/5 12/11/5 11/12/5
f 11/12/6 12/11/6 14/13/6 13/14/6
f 4/15/7 2/16/7 16/17/7 14/18/7 12/19/7 10/20/7 8/21/7 6/22/7
f 13/14/8 14/13/8 16/23/8 15/24/8
f 15/24/9 16/23/9 2/25/9 1/26/9
f 1/27/10 3/28/10 5/29/10 7/30/10 9/31/10 11/32/10 13/33/10 15/34/10
o Cylinder.001
v 0.000000 -39.945065 -29.498938
v 0.000000 6.999756 -29.498938
v 0.536359 -39.945065 -29.276770
v 0.536359 6.999756 -29.276770
v 0.758526 -39.945065 -28.740412
v 0.758526 6.999756 -28.740412
v 0.536359 -39.945065 -28.204052
v 0.536359 6.999756 -28.204052
v -0.000000 -39.945065 -27.981886
v -0.000000 6.999756 -27.981886
v -0.536359 -39.945065 -28.204052
v -0.536359 6.999756 -28.204052
v -0.758526 -39.945065 -28.740412
v -0.758526 6.999756 -28.740412
v -0.536359 -39.945065 -29.276770
v -0.536359 6.999756 -29.276770
vt 1.000000 0.500000
vt 1.000000 1.000000
vt 0.875000 1.000000
vt 0.875000 0.500000
vt 0.750000 1.000000
vt 0.750000 0.500000
vt 0.625000 1.000000
vt 0.625000 0.500000
vt 0.500000 1.000000
vt 0.500000 0.500000
vt 0.375000 1.000000
vt 0.375000 0.500000
vt 0.250000 1.000000
vt 0.250000 0.500000
vt 0.419706 0.419706
vt 0.250000 0.490000
vt 0.080294 0.419706
vt 0.010000 0.250000
vt 0.080294 0.080294
vt 0.250000 0.010000
vt 0.419706 0.080294
vt 0.490000 0.250000
vt 0.125000 1.000000
vt 0.125000 0.500000
vt 0.000000 1.000000
vt 0.000000 0.500000
vt 0.750000 0.490000
vt 0.919706 0.419706
vt 0.990000 0.250000
vt 0.919706 0.080294
vt 0.750000 0.010000
vt 0.580294 0.080294
vt 0.510000 0.250000
vt 0.580294 0.419706
vn 0.3827 0.0000 -0.9239
vn 0.9239 0.0000 -0.3827
vn 0.9239 0.0000 0.3827
vn 0.3827 0.0000 0.9239
vn -0.3827 0.0000 0.9239
vn -0.9239 0.0000 0.3827
vn 0.0000 1.0000 0.0000
vn -0.9239 0.0000 -0.3827
vn -0.3827 0.0000 -0.9239
vn 0.0000 -1.0000 0.0000
usemtl grey
s off
f 17/35/11 18/36/11 20/37/11 19/38/11
f 19/38/12 20/37/12 22/39/12 21/40/12
f 21/40/13 22/39/13 24/41/13 23/42/13
f 23/42/14 24/41/14 26/43/14 25/44/14
f 25/44/15 26/43/15 28/45/15 27/46/15
f 27/46/16 28/45/16 30/47/16 29/48/16
f 20/49/17 18/50/17 32/51/17 30/52/17 28/53/17 26/54/17 24/55/17 22/56/17
f 29/48/18 30/47/18 32/57/18 31/58/18
f 31/58/19 32/57/19 18/59/19 17/60/19
f 17/61/20 19/62/20 21/63/20 23/64/20 25/65/20 27/66/20 29/67/20 31/68/20
o Plane
v 0.000000 6.999259 28.990078
v -0.000000 -6.999256 28.990078
v 0.000000 6.999256 -28.990078
v -0.000000 -6.999259 -28.990078
vt 0.000000 0.000000
vt 1.000000 0.000000
vt 1.000000 1.000000
vt 0.000000 1.000000
vn 1.0000 -0.0000 0.0000
usemtl startTexture2
s off
f 33/69/21 34/70/21 36/71/21 35/72/21
